<?xml version="1.0" encoding="iso-8859-1"?>
<!-- Uploaded to: SVG Repo, www.svgrepo.com, Generator: SVG Repo Mixer Tools -->
<svg height="800px" width="800px" version="1.1" id="Layer_1" xmlns="http://www.w3.org/2000/svg" xmlns:xlink="http://www.w3.org/1999/xlink" 
	 viewBox="0 0 511.883 511.883" xml:space="preserve">
<path style="fill:#EAC6BB;" d="M450.786,324.925c-3.342-0.266-7.014-0.391-11.043-0.391c-26.244,0-67.11,5.577-123.113,15.466
	c-6.967-19.87-51.238-28.587-51.238-28.587s-95.548-5.202-156.534-8.529c-3.89-0.219-7.655-0.328-11.279-0.328
	C16.793,302.556,0,352.982,0,352.982v52.238c0.031,29.945,92.33,44.614,92.643,44.677c73.319,14.481,163.432,19.324,163.432,19.324
	s246.935-97.01,253.418-102.68C515.975,360.871,513.131,329.924,450.786,324.925z"/>
<path style="fill:#DBADA2;" d="M385.833,329.018c-19.402,2.562-42.021,6.202-67.875,10.748c-3.297,1.468-6.686,2.968-10.17,4.452
	c-67.765,28.899-115.691,34.977-143.958,34.977c-5.889,0-10.662,4.779-10.662,10.653c0,5.905,4.772,10.67,10.662,10.67
	c44.099,0,95.462-12.388,152.66-36.82C351.075,348.905,376.881,334.283,385.833,329.018z"/>
<path style="fill:#F6BB42;" d="M335.047,127.971c-12.653-31.258-43.302-53.316-79.106-53.316s-66.446,22.058-79.107,53.316h-6.131
	v28.649c-0.047,1.109-0.07,2.218-0.07,3.343s0.023,2.234,0.07,3.343l0,0l0,0c1.757,45.568,39.241,81.966,85.238,81.966
	c45.989,0,83.48-36.397,85.245-81.966h0.062v-35.335L335.047,127.971L335.047,127.971z"/>
<circle style="fill:#FFCE54;" cx="255.941" cy="127.972" r="85.31"/>
<path style="fill:#E8AA3D;" d="M255.941,85.309c-5.889,0-10.662,4.779-10.662,10.669v63.985c0,5.89,4.772,10.67,10.662,10.67
	c5.889,0,10.669-4.78,10.669-10.67V95.978C266.61,90.088,261.83,85.309,255.941,85.309z"/>
</svg>