<?xml version="1.0" encoding="iso-8859-1"?>
<!-- Uploaded to: SVG Repo, www.svgrepo.com, Generator: SVG Repo Mixer Tools -->
<svg height="800px" width="800px" version="1.1" id="Layer_1" xmlns="http://www.w3.org/2000/svg" xmlns:xlink="http://www.w3.org/1999/xlink" 
	 viewBox="0 0 512 512" xml:space="preserve">
<path style="fill:#AEB3BF;" d="M489.739,200.348H356.174c-9.217,0-16.696-7.473-16.696-16.696V116.87
	c0-9.223,7.479-16.696,16.696-16.696h133.565c9.217,0,16.696,7.473,16.696,16.696v66.783
	C506.435,192.875,498.956,200.348,489.739,200.348z"/>
<path style="fill:#C4C9D6;" d="M122.435,267.13H55.652c-9.217,0-16.696-7.473-16.696-16.696V150.261
	c0-27.619,22.468-50.087,50.087-50.087h133.565c9.217,0,16.696,7.473,16.696,16.696v66.783c0,9.223-7.479,16.696-16.696,16.696
	H139.13v50.087C139.13,259.657,131.652,267.13,122.435,267.13z"/>
<path style="fill:#AEB3BF;" d="M122.435,267.13c9.217,0,16.696-7.473,16.696-16.696v-50.087h83.478
	c9.217,0,16.696-7.473,16.696-16.696V116.87c0-9.223-7.479-16.696-16.696-16.696H89.043V267.13H122.435z"/>
<path style="fill:#6C5B52;" d="M489.739,267.13c-9.217,0-16.696-7.473-16.696-16.696V50.087c0-9.223,7.479-16.696,16.696-16.696
	c9.217,0,16.696,7.473,16.696,16.696v200.348C506.435,259.657,498.956,267.13,489.739,267.13z"/>
<path style="fill:#AEB3BF;" d="M322.783,100.174H256c-9.217,0-16.696-7.473-16.696-16.696V16.696C239.304,7.473,246.783,0,256,0
	h66.783c9.217,0,16.696,7.473,16.696,16.696v66.783C339.478,92.701,332,100.174,322.783,100.174z"/>
<path style="fill:#7C84E8;" d="M167.848,401.03c-0.334-1.224-0.892-2.56-1.448-3.784c-3.005-7.012-7.345-14.136-13.357-22.261
	c-0.111-0.334-0.334-0.557-0.557-0.89c-9.461-13.134-22.928-28.939-40.959-51.311c-3.005-3.784-6.234-7.68-9.462-11.798
	c-3.227-4.007-8.125-5.899-13.021-5.899s-9.795,1.892-13.021,5.899c-5.121,6.456-9.907,12.355-14.358,17.92
	c-15.694,19.367-27.381,33.503-36.063,45.19c-0.223,0.445-0.669,1.002-1.003,1.447c-4.674,6.567-8.348,12.355-11.242,17.92
	c-0.445,0.89-0.89,1.892-1.223,2.783c-4.789,10.129-6.569,19.701-6.569,32.278c0,46.08,37.398,83.478,83.478,83.478
	s83.478-37.398,83.478-83.478C172.522,418.17,171.186,409.489,167.848,401.03z"/>
<path style="fill:#515BE0;" d="M172.522,428.522c0,46.08-37.398,83.478-83.478,83.478V305.085c4.896,0,9.795,1.892,13.021,5.899
	c3.228,4.118,6.457,8.014,9.462,11.798c18.031,22.372,31.499,38.177,40.959,51.311c0.223,0.334,0.445,0.557,0.557,0.89l1.336,1.558
	c5.01,6.234,9.015,13.245,12.021,20.703c0.557,1.224,1.114,2.56,1.448,3.784C171.186,409.489,172.522,418.17,172.522,428.522z"/>
<path style="fill:#AEB3BF;" d="M322.783,0h-33.391v100.174h33.391c9.217,0,16.696-7.473,16.696-16.696V16.696
	C339.478,7.473,332,0,322.783,0z"/>
<path style="fill:#7C84E8;" d="M389.565,33.391H189.217c-9.22,0-16.696-7.475-16.696-16.696l0,0c0-9.22,7.475-16.696,16.696-16.696
	h200.348c9.22,0,16.696,7.475,16.696,16.696l0,0C406.261,25.916,398.786,33.391,389.565,33.391z"/>
<path style="fill:#515BE0;" d="M389.565,0H289.391v33.391h100.174c9.22,0,16.696-7.475,16.696-16.696S398.786,0,389.565,0z"/>
<path style="fill:#DBE1F1;" d="M322.783,233.739H256c-27.619,0-50.087-22.468-50.087-50.087V116.87
	c0-27.619,22.468-50.087,50.087-50.087h66.783c27.619,0,50.087,22.468,50.087,50.087v66.783
	C372.87,211.271,350.402,233.739,322.783,233.739z"/>
<path style="fill:#D0D5E5;" d="M322.783,66.783h-33.391v166.957h33.391c27.619,0,50.087-22.468,50.087-50.087V116.87
	C372.87,89.25,350.402,66.783,322.783,66.783z"/>
</svg>